<svg width="202" height="64" viewBox="0 0 202 64" fill="none" xmlns="http://www.w3.org/2000/svg">
<path d="M93.74 37.3C96.56 40.42 99.68 44.32 103.64 49.72C104 50.26 104.3 50.08 104.6 49.6C105.38 48.4 105.14 46.36 104.3 44.74C103.04 42.22 100.88 39.34 98.6 36.52C105.26 34.96 111.74 31.18 114.98 26.86C117.26 23.8 118.1 20.14 116.84 16.54C115.4 12.46 112.76 11.56 109.7 11.68C105.68 11.86 101.18 14.32 96.14 14.92C95.36 15.04 95.18 15.34 95.48 15.94C96.2 17.26 97.28 18.16 99.32 18.34C94.04 26.62 88.4 38.02 86.9 43.48C86 46.72 86.6 48.52 87.44 49.42C87.86 49.84 88.16 49.78 88.4 49.18C90.38 44.26 92.12 40.48 93.74 37.3ZM102.98 17.98C106.94 16.9 112.94 13.78 114.26 17.14C116 21.4 109.22 30.16 95.96 33.1C97.58 30.16 99.08 27.64 100.7 24.76C102.32 21.76 102.98 19.66 102.98 17.98ZM132.536 36.1C132.776 35.8 132.776 35.5 132.356 35.5C131.876 35.5 131.516 35.62 131.156 35.62C131.216 35.14 131.216 34.72 131.276 34.24C131.636 29.92 129.836 29.5 128.456 27.64C127.256 26.02 126.236 25.48 124.376 25.6C120.776 25.84 117.116 29.32 114.836 33.4C112.136 38.2 111.236 43.42 113.876 46.9C116.276 50.02 119.276 50.26 121.436 49.54C125.876 48.04 129.656 41.98 130.916 36.88C131.516 36.82 132.116 36.58 132.536 36.1ZM127.376 34.48C126.416 33.58 125.756 31.84 126.056 30.22C126.356 28.48 127.556 28.12 127.856 30.04C128.036 31.12 127.856 32.62 127.376 34.48ZM126.956 36.1C126.476 37.54 125.756 39.22 124.856 40.9C121.916 46.42 118.256 48.52 116.576 47.14C115.016 45.82 115.916 40.3 118.436 35.74C119.696 33.46 121.436 31.48 123.056 30.1C123.116 32.32 124.556 34.42 125.816 35.38C126.176 35.68 126.536 35.92 126.956 36.1ZM134.278 39.16C134.218 38.68 134.218 38.2 134.158 37.72C134.098 36.76 133.618 36.52 132.898 37.12C130.857 38.8 130.677 42.76 132.118 45.46C134.158 49.18 137.518 50.08 140.998 49.96C145.258 49.78 149.338 47.5 151.618 43.36C152.638 41.5 152.698 39.94 152.458 39.4C152.218 38.92 151.618 38.74 151.318 39.4C149.818 42.64 147.298 46.24 143.278 47.74C145.438 46.3 145.858 43.78 145.978 41.44C146.158 37.3 145.018 32.62 145.438 27.1C145.678 26.68 145.858 26.32 146.098 25.96C146.878 24.58 147.178 23.92 146.578 23.32C146.038 22.78 144.658 23.02 143.338 24.22C142.078 25.36 141.478 26.5 141.178 28.84C139.438 31.9 136.738 35.8 134.278 39.16ZM141.058 32.68C141.298 37.48 142.198 46.9 139.438 47.74C137.458 48.34 135.718 45.88 134.818 42.4C137.098 39.16 139.318 35.86 141.058 32.68ZM163.963 21.46C163.183 19.84 161.443 19.12 160.483 20.14C159.523 21.16 159.223 22.96 160.183 24.58C161.083 26.14 162.763 26.32 163.543 25.48C164.323 24.64 164.743 23.02 163.963 21.46ZM154.183 49.9C157.543 49.9 161.323 47.38 163.123 43.66C163.843 42.16 164.023 40.9 163.543 39.94C163.303 39.46 162.883 39.4 162.583 39.94C160.783 44.08 157.483 48.04 154.783 48.16C152.863 48.28 152.743 45.94 154.183 42.46C155.443 39.46 157.963 35.38 159.223 32.74C160.663 29.74 160.183 27.16 159.283 26.2C158.803 25.66 158.383 25.84 157.843 26.56C155.623 29.68 151.663 36.76 150.163 41.14C148.483 46.06 149.623 49.9 154.183 49.9ZM169.613 25.66C167.033 30.4 164.513 35.44 163.253 38.44C160.373 45.34 163.553 49.78 167.513 49.9C172.313 50.08 176.273 44.8 177.053 43.06C177.653 41.68 177.953 40.6 177.653 39.64C177.413 38.8 176.753 38.92 176.393 39.64C174.173 44.14 170.753 48.4 168.053 48.28C165.533 48.16 164.873 44.44 166.853 40.06C169.133 35.02 172.553 29.2 174.893 25.18C176.393 24.94 178.253 24.76 179.573 24.94C180.473 24.94 180.713 24.52 180.293 23.8C179.813 23.02 178.913 21.94 176.573 22C178.013 18.88 178.013 16.9 177.353 15.22C177.053 14.5 176.453 14.44 175.913 15.22C174.893 16.54 173.213 19.36 171.353 22.66C169.733 22.84 168.053 22.96 166.373 22.9C165.473 22.84 165.113 23.26 165.713 24.1C166.193 24.76 167.573 25.66 169.613 25.66ZM194.385 29.5C194.505 27.16 193.305 25.18 190.725 25.18C187.725 25.18 182.985 27.88 178.125 34.96C173.145 42.22 174.285 49.84 179.865 49.84C182.745 49.84 185.445 47.62 187.365 45.16C187.365 47.98 189.045 49.9 192.285 50.08C195.585 50.26 199.365 46.96 200.925 43.66C201.705 41.98 201.705 40.48 201.465 39.94C201.225 39.4 200.805 39.46 200.505 40C198.405 44.14 195.105 48.22 192.645 48.34C190.605 48.46 190.665 45.88 192.165 42.52C193.605 39.34 196.605 34.84 197.925 32.14C199.365 29.14 198.885 26.56 197.985 25.48C197.565 24.94 197.085 25.06 196.545 25.84C195.885 26.8 195.165 28.06 194.385 29.5ZM189.165 38.8C186.105 44.08 182.985 47.92 180.525 47.86C178.185 47.8 178.965 42.52 182.145 37.36C185.445 32.02 189.825 28.12 191.745 28.3C193.485 28.48 192.945 32.2 189.165 38.8Z" fill="#8063D4"/>
<path d="M60.87 4.29645L70 41.8903L38.3137 63.3725L29.7208 26.3157L60.87 4.29645Z" fill="#B4AEE8"/>
<path d="M14.6832 4.29645L46.3695 26.3158L38.3137 63.3726L5.55328 41.8903L14.6832 4.29645Z" fill="#B4AEE8"/>
<path d="M38.3137 0L59.7959 32.2233L38.3137 63.3725L16.2944 32.2233L38.3137 0Z" fill="#B4AEE8"/>
<path d="M28.464 14.5005L37.5939 20.4081L47.2609 14.5005L59.6132 32.2233L38.131 63.3725L16.1117 32.2233L28.464 14.5005Z" fill="#C1A3F1"/>
<path d="M29.001 26.3157L37.5939 20.4081L46.1868 26.3157L38.1309 63.3725L29.001 26.3157Z" fill="#8063D4" fill-opacity="0.56"/>
</svg>
