<svg width="144" height="46" viewBox="0 0 144 46" fill="none" xmlns="http://www.w3.org/2000/svg">
<path d="M71.16 25.2C73.04 27.28 75.12 29.88 77.76 33.48C78 33.84 78.2 33.72 78.4 33.4C78.92 32.6 78.76 31.24 78.2 30.16C77.36 28.48 75.92 26.56 74.4 24.68C78.84 23.64 83.16 21.12 85.32 18.24C86.84 16.2 87.4 13.76 86.56 11.36C85.6 8.64 83.84 8.04 81.8 8.12C79.12 8.24 76.12 9.88 72.76 10.28C72.24 10.36 72.12 10.56 72.32 10.96C72.8 11.84 73.52 12.44 74.88 12.56C71.36 18.08 67.6 25.68 66.6 29.32C66 31.48 66.4 32.68 66.96 33.28C67.24 33.56 67.44 33.52 67.6 33.12C68.92 29.84 70.08 27.32 71.16 25.2ZM77.32 12.32C79.96 11.6 83.96 9.52 84.84 11.76C86 14.6 81.48 20.44 72.64 22.4C73.72 20.44 74.72 18.76 75.8 16.84C76.88 14.84 77.32 13.44 77.32 12.32ZM97.0238 24.4C97.1838 24.2 97.1838 24 96.9038 24C96.5838 24 96.3438 24.08 96.1038 24.08C96.1438 23.76 96.1438 23.48 96.1838 23.16C96.4238 20.28 95.2238 20 94.3038 18.76C93.5038 17.68 92.8238 17.32 91.5838 17.4C89.1838 17.56 86.7438 19.88 85.2238 22.6C83.4238 25.8 82.8237 29.28 84.5838 31.6C86.1838 33.68 88.1838 33.84 89.6238 33.36C92.5838 32.36 95.1037 28.32 95.9438 24.92C96.3438 24.88 96.7438 24.72 97.0238 24.4ZM93.5838 23.32C92.9438 22.72 92.5038 21.56 92.7038 20.48C92.9038 19.32 93.7038 19.08 93.9037 20.36C94.0238 21.08 93.9037 22.08 93.5838 23.32ZM93.3038 24.4C92.9838 25.36 92.5038 26.48 91.9038 27.6C89.9438 31.28 87.5038 32.68 86.3838 31.76C85.3438 30.88 85.9438 27.2 87.6238 24.16C88.4638 22.64 89.6238 21.32 90.7038 20.4C90.7438 21.88 91.7038 23.28 92.5438 23.92C92.7838 24.12 93.0238 24.28 93.3038 24.4ZM98.185 26.44C98.145 26.12 98.145 25.8 98.105 25.48C98.065 24.84 97.745 24.68 97.265 25.08C95.905 26.2 95.785 28.84 96.745 30.64C98.105 33.12 100.345 33.72 102.665 33.64C105.505 33.52 108.225 32 109.745 29.24C110.425 28 110.465 26.96 110.305 26.6C110.145 26.28 109.745 26.16 109.545 26.6C108.545 28.76 106.865 31.16 104.185 32.16C105.625 31.2 105.905 29.52 105.985 27.96C106.105 25.2 105.345 22.08 105.625 18.4C105.785 18.12 105.905 17.88 106.065 17.64C106.585 16.72 106.785 16.28 106.385 15.88C106.025 15.52 105.105 15.68 104.225 16.48C103.385 17.24 102.985 18 102.785 19.56C101.625 21.6 99.825 24.2 98.185 26.44ZM102.705 22.12C102.865 25.32 103.465 31.6 101.625 32.16C100.305 32.56 99.145 30.92 98.545 28.6C100.065 26.44 101.545 24.24 102.705 22.12ZM117.975 14.64C117.455 13.56 116.295 13.08 115.655 13.76C115.015 14.44 114.815 15.64 115.455 16.72C116.055 17.76 117.175 17.88 117.695 17.32C118.215 16.76 118.495 15.68 117.975 14.64ZM111.455 33.6C113.695 33.6 116.215 31.92 117.415 29.44C117.895 28.44 118.015 27.6 117.695 26.96C117.535 26.64 117.255 26.6 117.055 26.96C115.855 29.72 113.655 32.36 111.855 32.44C110.575 32.52 110.495 30.96 111.455 28.64C112.295 26.64 113.975 23.92 114.815 22.16C115.775 20.16 115.455 18.44 114.855 17.8C114.535 17.44 114.255 17.56 113.895 18.04C112.415 20.12 109.775 24.84 108.775 27.76C107.655 31.04 108.415 33.6 111.455 33.6ZM121.742 17.44C120.022 20.6 118.342 23.96 117.502 25.96C115.582 30.56 117.702 33.52 120.342 33.6C123.542 33.72 126.182 30.2 126.702 29.04C127.102 28.12 127.302 27.4 127.102 26.76C126.942 26.2 126.502 26.28 126.262 26.76C124.782 29.76 122.502 32.6 120.702 32.52C119.022 32.44 118.582 29.96 119.902 27.04C121.422 23.68 123.702 19.8 125.262 17.12C126.262 16.96 127.502 16.84 128.382 16.96C128.982 16.96 129.142 16.68 128.862 16.2C128.542 15.68 127.942 14.96 126.382 15C127.342 12.92 127.342 11.6 126.902 10.48C126.702 10 126.302 9.96 125.942 10.48C125.262 11.36 124.142 13.24 122.902 15.44C121.822 15.56 120.702 15.64 119.582 15.6C118.982 15.56 118.742 15.84 119.142 16.4C119.462 16.84 120.382 17.44 121.742 17.44ZM138.257 20C138.337 18.44 137.537 17.12 135.817 17.12C133.817 17.12 130.657 18.92 127.417 23.64C124.097 28.48 124.857 33.56 128.577 33.56C130.497 33.56 132.297 32.08 133.577 30.44C133.577 32.32 134.697 33.6 136.857 33.72C139.057 33.84 141.577 31.64 142.617 29.44C143.137 28.32 143.137 27.32 142.977 26.96C142.817 26.6 142.537 26.64 142.337 27C140.937 29.76 138.737 32.48 137.097 32.56C135.737 32.64 135.777 30.92 136.777 28.68C137.737 26.56 139.737 23.56 140.617 21.76C141.577 19.76 141.257 18.04 140.657 17.32C140.377 16.96 140.057 17.04 139.697 17.56C139.257 18.2 138.777 19.04 138.257 20ZM134.777 26.2C132.737 29.72 130.657 32.28 129.017 32.24C127.457 32.2 127.977 28.68 130.097 25.24C132.297 21.68 135.217 19.08 136.497 19.2C137.657 19.32 137.297 21.8 134.777 26.2Z" fill="#D46382"/>
<path d="M43.4786 3.06891L50 29.9217L27.3669 45.2661L21.2292 18.797L43.4786 3.06891Z" fill="#F2D0D9"/>
<path d="M10.4881 3.06891L33.1211 18.797L27.3669 45.2661L3.96666 29.9217L10.4881 3.06891Z" fill="#F2D0D9"/>
<path d="M27.3669 0L42.7114 23.0167L27.3669 45.2661L11.6389 23.0167L27.3669 0Z" fill="#F2D0D9"/>
<path d="M20.3314 10.3575L26.8528 14.5772L33.7578 10.3575L42.5808 23.0166L27.2364 45.2661L11.5083 23.0166L20.3314 10.3575Z" fill="#E9AFBE"/>
<path d="M20.715 18.7969L26.8528 14.5772L32.9905 18.7969L27.2364 45.2661L20.715 18.7969Z" fill="#E398AC"/>
</svg>
